<?xml version="1.0" encoding="UTF-8"?>
<!DOCTYPE svg PUBLIC "-//W3C//DTD SVG 1.1//EN" "http://www.w3.org/Graphics/SVG/1.1/DTD/svg11.dtd">
<svg xmlns="http://www.w3.org/2000/svg" version="1.1" width="100px" height="100px" style="shape-rendering:geometricPrecision; text-rendering:geometricPrecision; image-rendering:optimizeQuality; fill-rule:evenodd; clip-rule:evenodd" xmlns:xlink="http://www.w3.org/1999/xlink">
<g><path style="opacity:0.993" fill="#6d0000" d="M 47.5,12.5 C 48.4822,13.1408 49.4822,13.8075 50.5,14.5C 51.6665,37.4928 51.8331,60.4928 51,83.5C 49.4878,84.2567 48.1545,85.2567 47,86.5C 39.9186,81.7089 32.752,77.0422 25.5,72.5C 24.5027,65.1968 24.1694,57.8635 24.5,50.5C 30.5,50.5 36.5,50.5 42.5,50.5C 42.5,52.8333 42.5,55.1667 42.5,57.5C 38.5,57.5 34.5,57.5 30.5,57.5C 30.2408,61.2396 30.5741,64.9062 31.5,68.5C 35.5819,71.2914 39.7485,73.9581 44,76.5C 44.1669,55.8253 44.6669,35.1586 45.5,14.5C 46.5223,14.1445 47.189,13.4778 47.5,12.5 Z"/></g>
<g><path style="opacity:0.96" fill="#6d0000" d="M 41.5,16.5 C 42.494,26.3194 42.8274,36.3194 42.5,46.5C 36.1667,46.5 29.8333,46.5 23.5,46.5C 23.3338,40.1579 23.5005,33.8246 24,27.5C 29.8134,23.6835 35.6467,20.0168 41.5,16.5 Z M 33.5,28.5 C 35.4228,32.0293 36.0894,36.0293 35.5,40.5C 33.8333,40.5 32.1667,40.5 30.5,40.5C 30.335,37.1501 30.5017,33.8168 31,30.5C 31.9947,29.9341 32.828,29.2674 33.5,28.5 Z"/></g>
<g><path style="opacity:0.96" fill="#6d0000" d="M 54.5,16.5 C 55.973,17.7401 57.6396,18.7401 59.5,19.5C 60.3329,36.4902 60.8329,53.4902 61,70.5C 64.1676,68.2485 67.5009,66.2485 71,64.5C 71.6667,58.5 71.6667,52.5 71,46.5C 68.9656,44.9684 66.7989,43.6351 64.5,42.5C 63.3452,39.5541 63.1786,36.5541 64,33.5C 69.272,36.4411 74.272,39.7744 79,43.5C 79.6667,51.5 79.6667,59.5 79,67.5C 71.2493,72.2925 63.416,76.9592 55.5,81.5C 54.5003,59.8436 54.167,38.1769 54.5,16.5 Z"/></g>
<g><path style="opacity:0.943" fill="#6d0000" d="M 63.5,22.5 C 69.021,24.8454 74.1877,27.8454 79,31.5C 79.4966,33.8098 79.6633,36.1432 79.5,38.5C 74.1206,36.6423 69.1206,33.9756 64.5,30.5C 63.52,27.9135 63.1866,25.2469 63.5,22.5 Z"/></g>
</svg>
