<?xml version="1.0" standalone="no"?>
<!DOCTYPE svg PUBLIC "-//W3C//DTD SVG 20010904//EN"
 "http://www.w3.org/TR/2001/REC-SVG-20010904/DTD/svg10.dtd">
<svg version="1.0" xmlns="http://www.w3.org/2000/svg"
 width="840.000000pt" height="561.000000pt" viewBox="0 0 840.000000 561.000000"
 preserveAspectRatio="xMidYMid meet">

<g transform="translate(0.000000,561.000000) scale(0.100000,-0.100000)"
fill="#000000" stroke="none">
<path d="M2519 5118 c-216 -171 -483 -458 -629 -673 -120 -177 -245 -449 -300
-650 -48 -177 -82 -324 -90 -395 -6 -47 -15 -130 -21 -185 -17 -151 -6 -557
20 -725 35 -230 89 -450 186 -755 93 -294 104 -336 125 -480 27 -186 36 -393
21 -528 -10 -95 -45 -257 -66 -309 -7 -17 4 -18 134 -18 l141 0 27 42 c38 61
100 208 128 304 100 344 112 751 34 1179 -101 563 -99 806 7 1138 107 330 286
618 558 896 172 174 258 247 422 357 313 209 688 349 1129 421 138 23 663 25
815 4 295 -41 614 -127 849 -231 49 -21 80 -29 88 -24 11 7 310 628 336 697 6
16 -89 17 -1902 17 l-1909 0 -103 -82z"/>
<path d="M4465 4530 c-412 -51 -880 -222 -1175 -429 -199 -140 -410 -343 -533
-516 -88 -123 -200 -342 -245 -480 -40 -120 -79 -307 -92 -434 -11 -116 -14
-455 -3 -551 7 -70 11 -66 39 40 23 86 99 230 154 292 81 91 200 154 315 166
l60 7 31 85 c43 118 64 163 118 254 201 339 567 615 971 731 143 41 349 75
457 75 l44 0 18 75 c29 121 110 275 191 360 50 53 147 122 220 156 97 45 262
89 342 90 l58 0 -45 15 c-25 8 -103 26 -175 40 -118 24 -156 27 -405 29 -151
2 -306 0 -345 -5z"/>
<path d="M4400 3531 c-219 -24 -492 -131 -685 -269 -75 -54 -210 -188 -275
-272 -163 -214 -300 -515 -331 -729 -15 -104 -6 -364 14 -441 8 -30 23 -91 32
-135 10 -44 41 -164 70 -267 91 -316 122 -505 111 -663 -7 -88 -13 -130 -42
-267 -8 -37 -14 -72 -14 -77 0 -8 109 -11 341 -11 l342 0 116 34 c245 73 467
125 538 128 23 1 42 -6 61 -24 15 -15 60 -51 101 -82 l74 -56 640 0 640 0 -7
40 c-38 236 -66 644 -66 958 l0 222 -129 0 c-150 0 -268 25 -396 84 -98 46
-233 135 -275 182 l-32 37 59 59 c69 71 157 119 275 149 70 18 101 21 198 16
130 -6 187 -22 290 -83 225 -132 330 -366 318 -706 -4 -95 -2 -141 6 -147 13
-10 20 -11 284 -56 274 -47 287 -47 238 12 -48 57 -179 249 -242 356 -124 207
-217 407 -396 847 -132 325 -187 426 -322 589 -153 183 -338 321 -560 415
-228 97 -492 154 -751 161 -82 2 -184 0 -225 -4z"/>
</g>
</svg>
